PathFileType	4	(X/Y/Z)	C:\Git\research_data\Projects\torsion_deformities_healthy_kinematics\simulations\TD01\pre\dynamic_14_l\marker_experimental.trc
DataRate	CameraRate	NumFrames	NumMarkers	Units	OrigDataRate	OrigDataStartFrame	OrigNumFrames
200	200	10	30	mm	200	78	618
Frame#	Time	C7			T10			CLAV			STRN			RBAK			LASI			RASI			SACR			RT1			RT2			RT3			RKNE			RS1			RS2			RS3			RANK			RHEE			RTOE			LT1			LT2			LT3			LKNE			LS1			LS2			LS3			LANK			LHEE			LTOE			RHJC			LHJC		
		X1	Y1	Z1	X2	Y2	Z2	X3	Y3	Z3	X4	Y4	Z4	X5	Y5	Z5	X6	Y6	Z6	X7	Y7	Z7	X8	Y8	Z8	X9	Y9	Z9	X10	Y10	Z10	X11	Y11	Z11	X12	Y12	Z12	X13	Y13	Z13	X14	Y14	Z14	X15	Y15	Z15	X16	Y16	Z16	X17	Y17	Z17	X18	Y18	Z18	X19	Y19	Z19	X20	Y20	Z20	X21	Y21	Z21	X22	Y22	Z22	X23	Y23	Z23	X24	Y24	Z24	X25	Y25	Z25	X26	Y26	Z26	X27	Y27	Z27	X28	Y28	Z28	X29	Y29	Z29	X30	Y30	Z30	

78	0.385000	-1503.161987	1246.612671	-199.587006	-1552.478638	1064.721069	-205.076477	-1385.433472	1194.957520	-206.611359	-1343.406006	1060.071777	-211.048309	-1533.447754	1173.161865	-103.612053	-1414.781372	854.056274	-305.706726	-1433.080078	862.738586	-105.208519	-1585.475830	900.376343	-218.554260	-1483.750000	654.649536	-77.954178	-1528.260132	606.076904	-81.731865	-1479.327515	591.003662	-96.192291	-1524.929443	462.552002	-122.117218	-1601.828369	345.297089	-107.129066	-1634.042480	289.043549	-121.779297	-1584.253418	282.214325	-118.466393	-1656.113037	95.243919	-163.838943	-1701.677979	90.806396	-218.251312	-1519.468628	65.274925	-175.977982	-1400.999878	684.614319	-361.665924	-1391.562866	619.153931	-359.662506	-1347.595947	645.884216	-349.539490	-1305.137085	491.998047	-338.511414	-1342.388794	349.177094	-359.153961	-1349.978882	284.379333	-348.859467	-1301.061768	299.083893	-345.921051	-1336.957031	106.265709	-320.406433	-1372.866211	95.278786	-273.675842	-1191.833862	91.043388	-306.762054	-1496.917066	805.069409	-135.632757	-1483.514181	798.710051	-282.487644	
79	0.390000	-1496.374268	1245.530273	-199.487366	-1545.906372	1063.761108	-205.299973	-1378.659668	1193.703125	-206.487076	-1336.808228	1058.747314	-210.862885	-1526.730835	1172.018799	-103.472809	-1407.920166	852.623779	-305.652222	-1427.156982	861.899658	-105.101128	-1578.905396	899.342529	-219.327942	-1479.386108	654.094788	-77.904961	-1524.238281	605.889343	-81.885704	-1475.411011	590.449585	-96.130959	-1521.940674	462.184296	-122.002968	-1599.903809	345.588776	-107.384422	-1632.516235	289.594727	-122.206078	-1582.784302	282.389557	-118.696129	-1655.911987	95.772781	-164.229553	-1701.317505	91.629898	-218.771683	-1519.396118	65.219666	-175.958450	-1395.380371	682.082092	-360.961395	-1386.491211	616.591736	-358.352997	-1342.320435	643.064880	-348.602905	-1299.744019	490.363007	-336.745575	-1332.146240	346.975403	-358.245270	-1337.345581	281.869019	-348.234283	-1289.031860	298.391602	-345.280334	-1317.381104	104.201416	-320.789185	-1353.005615	91.802231	-274.144470	-1171.720581	93.856728	-306.867767	-1490.901350	804.152887	-135.683602	-1476.812496	797.359325	-282.565241	
80	0.395000	-1489.573486	1244.416870	-199.412399	-1539.297852	1062.761841	-205.540634	-1371.868164	1192.427856	-206.389725	-1330.177979	1057.408691	-210.708801	-1520.001465	1170.836182	-103.366440	-1400.996704	851.157227	-305.593262	-1421.171753	861.028992	-104.999443	-1572.273071	898.273682	-220.107010	-1474.986572	653.518555	-77.873894	-1520.178467	605.678833	-82.053741	-1471.458252	589.880676	-96.074211	-1518.853760	461.793121	-121.907997	-1597.941284	345.891052	-107.665726	-1630.969360	290.171722	-122.676865	-1581.290283	282.572662	-118.934669	-1655.697876	96.336197	-164.608093	-1700.946167	92.493820	-219.275681	-1519.329468	65.163010	-175.944321	-1389.831055	679.388123	-360.254974	-1381.640869	613.827942	-357.056213	-1337.250488	639.943909	-347.622345	-1294.513184	488.625183	-334.988495	-1322.131714	344.872681	-357.275085	-1324.935669	279.547363	-347.523865	-1277.293945	297.851105	-344.638000	-1298.083862	102.584427	-321.102234	-1333.355469	88.795372	-274.530762	-1152.036621	97.097572	-306.933533	-1484.823480	803.205167	-135.738524	-1470.048648	795.975759	-282.639772	
81	0.400000	-1482.759155	1243.277710	-199.363220	-1532.650879	1061.727295	-205.796692	-1365.058228	1191.138184	-206.320557	-1323.513062	1056.062744	-210.587250	-1513.259155	1169.619141	-103.294632	-1394.009521	849.664856	-305.527252	-1415.118042	860.125488	-104.902977	-1565.576050	897.173096	-220.886963	-1470.537964	652.917358	-77.860161	-1516.068237	605.438599	-82.233192	-1467.454346	589.290222	-96.019951	-1515.662476	461.373993	-121.830605	-1595.925781	346.198090	-107.960915	-1629.389160	290.769745	-123.171158	-1579.759277	282.757538	-119.174248	-1655.467773	96.933014	-164.960831	-1700.565796	93.398575	-219.745163	-1519.269897	65.105400	-175.932663	-1384.316772	676.562744	-359.555115	-1376.972900	610.889893	-355.803192	-1332.353149	636.548096	-346.609589	-1289.419922	486.804901	-333.255859	-1312.366821	342.870789	-356.244507	-1312.781982	277.416473	-346.721436	-1265.874756	297.456207	-343.990906	-1279.141357	101.404358	-321.309814	-1313.980347	86.260056	-274.787903	-1132.842529	100.746735	-306.971130	-1478.677451	802.227104	-135.797731	-1463.220182	794.567031	-282.710125	
82	0.405000	-1475.930664	1242.118164	-199.340866	-1525.963013	1060.662109	-206.066345	-1358.229248	1189.840576	-206.280701	-1316.811279	1054.716675	-210.499359	-1506.502930	1168.373169	-103.258934	-1386.957275	848.155029	-305.452057	-1408.989868	859.188354	-104.811409	-1558.812378	896.044678	-221.663223	-1466.024414	652.287903	-77.863678	-1511.891846	605.161438	-82.419838	-1463.381104	588.671265	-95.967789	-1512.359863	460.923096	-121.768631	-1593.838867	346.503418	-108.256538	-1627.758423	291.382874	-123.665710	-1578.176025	282.937775	-119.407684	-1655.218506	97.562347	-165.274216	-1700.177368	94.345825	-220.162399	-1519.217529	65.047218	-175.920502	-1378.798828	673.641418	-358.869843	-1372.438110	607.813354	-354.625122	-1327.584595	632.916565	-345.580597	-1284.437134	484.922699	-331.563202	-1302.870728	340.966064	-355.155609	-1300.916260	275.471222	-345.822540	-1254.798828	297.193329	-343.334106	-1260.632812	100.636803	-321.374542	-1294.949341	84.186211	-274.867096	-1114.200562	104.768463	-306.993225	-1472.457777	801.219891	-135.861695	-1456.324978	793.141023	-282.775651	
83	0.410000	-1469.087280	1240.943604	-199.346161	-1519.232300	1059.570801	-206.347763	-1351.380249	1188.541748	-206.271194	-1310.070312	1053.377563	-210.446228	-1499.731934	1167.104004	-103.260704	-1379.839478	846.636292	-305.366180	-1402.781982	858.217651	-104.724594	-1551.980347	894.892334	-222.431290	-1461.428467	651.627197	-77.884819	-1507.630737	604.840454	-82.607948	-1459.218262	588.017456	-95.918953	-1508.938843	460.437592	-121.719521	-1591.659546	346.800201	-108.538651	-1626.057373	292.004578	-124.136223	-1576.522827	283.107056	-119.628609	-1654.946045	98.224014	-165.535629	-1699.781128	95.338760	-220.510956	-1519.172119	64.988815	-175.905075	-1373.236206	670.664001	-358.206390	-1367.977783	604.642212	-353.550415	-1322.890869	629.101074	-344.554230	-1279.535156	482.999054	-329.925232	-1293.659180	339.149872	-354.011017	-1289.369141	273.699585	-344.824524	-1244.087158	297.041473	-342.661194	-1242.640015	100.243164	-321.259186	-1276.336182	82.551125	-274.720001	-1096.174561	109.108978	-307.012207	-1466.159437	800.185190	-135.930853	-1449.361465	791.705586	-282.835985	
84	0.415000	-1462.228394	1239.760010	-199.379868	-1512.456665	1058.458496	-206.639160	-1344.510498	1187.248413	-206.292923	-1303.288086	1052.052490	-210.428955	-1492.945190	1165.817383	-103.301079	-1372.656006	845.117126	-305.268738	-1396.489136	857.213928	-104.642548	-1545.078857	893.720703	-223.186661	-1456.731445	650.933228	-77.924103	-1503.264893	604.469849	-82.790520	-1454.943848	587.324097	-95.875839	-1505.391357	459.915771	-121.680252	-1589.365601	347.082062	-108.793678	-1624.264038	292.628296	-124.559090	-1574.780762	283.259857	-119.831612	-1654.646362	98.918945	-165.733932	-1699.376709	96.382362	-220.776505	-1519.132324	64.930511	-175.884094	-1367.586914	667.673950	-357.570496	-1363.525146	601.427490	-352.601746	-1318.209106	625.165100	-343.550720	-1274.682129	481.053772	-328.355316	-1284.743286	337.409363	-352.813171	-1278.169800	272.083374	-343.725891	-1233.756714	296.972565	-341.964722	-1225.245117	100.171425	-320.928650	-1258.218628	81.319359	-274.301758	-1078.828735	113.695717	-307.038361	-1459.777704	799.125164	-136.005618	-1442.328639	790.268674	-282.891047	
85	0.420000	-1455.352783	1238.572876	-199.442474	-1505.634521	1057.330444	-206.938721	-1337.619019	1185.967163	-206.346619	-1296.462280	1050.748291	-210.448532	-1486.141357	1164.519653	-103.380966	-1365.407104	843.606262	-305.159821	-1390.106934	856.178711	-104.565445	-1538.107300	892.534424	-223.925003	-1451.914673	650.205200	-77.981674	-1498.773193	604.045349	-82.959801	-1450.535889	586.588623	-95.841232	-1501.709595	459.357300	-121.647339	-1586.935181	347.343658	-109.009216	-1622.355591	293.248138	-124.912926	-1572.930420	283.391846	-120.012245	-1654.315186	99.649445	-165.859848	-1698.962402	97.483467	-220.947342	-1519.095947	64.872627	-175.856049	-1361.808960	664.716919	-356.966064	-1359.007935	598.225891	-351.793152	-1313.469849	621.182617	-342.589111	-1269.844238	479.105804	-326.864563	-1276.129639	335.728577	-351.563873	-1267.344727	270.599060	-342.525330	-1223.819702	296.952209	-341.236877	-1208.529175	100.357758	-320.352295	-1240.677490	80.443420	-273.574188	-1062.227051	118.437561	-307.077881	-1453.308403	798.042365	-136.086578	-1435.225688	788.838091	-282.941472	
86	0.425000	-1448.459717	1237.388428	-199.534363	-1498.764404	1056.192139	-207.244720	-1330.704834	1184.704590	-206.432861	-1289.591187	1049.472168	-210.505966	-1479.318848	1163.216919	-103.500977	-1358.093506	842.112244	-305.040253	-1383.631226	855.114441	-104.493652	-1531.065918	891.338684	-224.642090	-1446.960205	649.443787	-78.056976	-1494.135132	603.565247	-83.108009	-1445.973633	585.810852	-95.817513	-1497.885498	458.763153	-121.616844	-1584.347778	347.581329	-109.174767	-1620.310547	293.859741	-125.179878	-1570.953613	283.500519	-120.166939	-1653.948608	100.419441	-165.906265	-1698.536499	98.650764	-221.014771	-1519.060425	64.815544	-175.820206	-1355.862793	661.839355	-356.394714	-1354.350220	595.097534	-351.127747	-1308.600220	617.235107	-341.684662	-1264.985718	477.172943	-325.461243	-1267.819336	334.089752	-350.263702	-1256.918213	269.219025	-341.221191	-1214.283203	296.940948	-340.469849	-1192.569702	100.729103	-319.506104	-1223.795410	79.865318	-272.508942	-1046.430786	123.226234	-307.130768	-1446.747795	796.940023	-136.174198	-1428.052423	787.421518	-282.988140	
87	0.430000	-1441.547974	1236.212402	-199.655640	-1491.845215	1055.049561	-207.555466	-1323.767090	1183.467285	-206.552094	-1282.672852	1048.230591	-210.602158	-1472.476318	1161.915894	-103.661423	-1350.716675	840.643738	-304.911957	-1377.058838	854.024475	-104.427734	-1523.954834	890.138977	-225.333832	-1441.852173	648.651062	-78.148415	-1489.332153	603.030334	-83.228088	-1441.238647	584.993408	-95.805923	-1493.911255	458.135803	-121.584282	-1581.585693	347.793640	-109.282120	-1618.109009	294.460999	-125.346458	-1568.834106	283.585541	-120.292809	-1653.542969	101.234558	-165.868210	-1698.095947	99.894661	-220.973022	-1519.022583	64.759651	-175.776657	-1349.711670	659.086853	-355.855499	-1349.476318	592.103516	-350.596924	-1303.526855	613.408630	-340.846283	-1260.070068	475.271576	-324.150421	-1259.808228	332.474762	-348.911804	-1246.910889	267.913208	-339.810974	-1205.148804	296.896210	-339.656158	-1177.438110	101.206520	-318.374725	-1207.655518	79.518852	-271.090424	-1031.496582	127.939003	-307.188812	-1440.092913	795.821860	-136.269076	-1420.809250	786.026551	-283.032654	
